<?xml version="1.0" encoding="UTF-8"?><svg id="Ebene_1" xmlns="http://www.w3.org/2000/svg" viewBox="0 0 283.46 212.6"><defs><style>.cls-1{fill:#ff3100;}.cls-1,.cls-2,.cls-3,.cls-4,.cls-5{stroke:#1d1d1b;stroke-linecap:round;stroke-linejoin:round;}.cls-2{fill:none;}.cls-3{stroke-width:1.14px;}.cls-3,.cls-5{fill:#fff;}.cls-4{fill:#1d1d1b;}.cls-4,.cls-5{stroke-width:2px;}</style></defs><path class="cls-4" d="m65.4,136.31v4.38c0,5.49,12.98,9.94,28.98,9.94s28.98-4.45,28.98-9.94v-4.38"/><ellipse class="cls-5" cx="94.38" cy="136.31" rx="28.98" ry="9.94"/><path class="cls-5" d="m87.24,79.4v53.69c0,1.35,3.2,2.45,7.14,2.45s7.14-1.1,7.14-2.45v-53.58l-14.28-.11Z"/><path class="cls-4" d="m17.92,45.43v11.62c0,14.48,34.23,26.22,76.46,26.22s76.46-11.74,76.46-26.22v-11.62"/><ellipse class="cls-5" cx="94.38" cy="45.43" rx="76.46" ry="26.22"/><path class="cls-4" d="m160.1,179.07v4.38c0,5.49,12.98,9.94,28.98,9.94s28.98-4.45,28.98-9.94v-4.38"/><ellipse class="cls-5" cx="189.08" cy="179.07" rx="28.98" ry="9.94"/><path class="cls-5" d="m181.94,122.16v53.69c0,1.35,3.2,2.45,7.14,2.45s7.14-1.1,7.14-2.45v-53.58l-14.28-.11Z"/><path class="cls-4" d="m112.63,88.18v11.62c0,14.48,34.23,26.22,76.46,26.22s76.46-11.74,76.46-26.22v-11.62"/><ellipse class="cls-5" cx="189.08" cy="88.18" rx="76.46" ry="26.22"/><line class="cls-3" x1="199.27" y1="69.35" x2="199.27" y2="88.18"/><polyline class="cls-3" points="220.15 75.86 220.15 88.18 220.15 69.35"/><path class="cls-1" d="m220.15,78.65c0-1.98-4.67-3.58-10.44-3.58s-10.44,1.6-10.44,3.58c0,.11.02.21.05.32h-.05v9.22c0,1.98,4.67,3.58,10.44,3.58s10.44-1.6,10.44-3.58v-9.22h-.05c.03-.11.05-.21.05-.32Z"/><ellipse class="cls-2" cx="209.71" cy="69.35" rx="10.44" ry="3.58"/><ellipse class="cls-2" cx="209.71" cy="78.65" rx="10.44" ry="3.58"/><line class="cls-3" x1="125.46" y1="37.3" x2="125.46" y2="56.14"/><polyline class="cls-3" points="146.33 43.81 146.33 56.14 146.33 37.3"/><path class="cls-1" d="m146.33,46.6c0-1.98-4.67-3.58-10.44-3.58s-10.44,1.6-10.44,3.58c0,.11.02.21.05.32h-.05v9.22c0,1.98,4.67,3.58,10.44,3.58s10.44-1.6,10.44-3.58v-9.22h-.05c.03-.11.05-.21.05-.32Z"/><ellipse class="cls-2" cx="135.9" cy="37.3" rx="10.44" ry="3.58"/><ellipse class="cls-2" cx="135.9" cy="46.6" rx="10.44" ry="3.58"/><line class="cls-3" x1="169.54" y1="83.89" x2="169.54" y2="102.72"/><polyline class="cls-3" points="190.41 90.39 190.41 102.72 190.41 83.89"/><path class="cls-1" d="m190.41,93.18c0-1.98-4.67-3.58-10.44-3.58s-10.44,1.6-10.44,3.58c0,.11.02.21.05.32h-.05v9.22c0,1.98,4.67,3.58,10.44,3.58s10.44-1.6,10.44-3.58v-9.22h-.05c.03-.11.05-.21.05-.32Z"/><ellipse class="cls-2" cx="179.98" cy="83.89" rx="10.44" ry="3.58"/><ellipse class="cls-2" cx="179.98" cy="93.18" rx="10.44" ry="3.58"/></svg>