<?xml version="1.0" encoding="UTF-8"?><svg id="Ebene_1" xmlns="http://www.w3.org/2000/svg" viewBox="0 0 283.46 212.6"><defs><style>.cls-1{fill:#1d1d1b;}.cls-1,.cls-2,.cls-3,.cls-4{stroke-linecap:round;stroke-linejoin:round;}.cls-1,.cls-3{stroke:#1d1d1b;}.cls-1,.cls-3,.cls-4{stroke-width:2px;}.cls-2{fill:#ff3100;stroke-width:2.04px;}.cls-2,.cls-4{stroke:#000;}.cls-3,.cls-4{fill:#fff;}</style></defs><path class="cls-3" d="m240.58,104.76v71.19c0,1.01,2.38,1.82,5.32,1.82s5.31-.82,5.31-1.82v-71.11l-10.63-.08Z"/><path class="cls-3" d="m111.11,55.36v71.19c0,1.01,2.38,1.82,5.32,1.82s5.31-.82,5.31-1.82V55.44l-10.63-.08Z"/><path class="cls-3" d="m28.54,69.34v71.19c0,1.01,2.38,1.82,5.32,1.82s5.31-.82,5.31-1.82v-71.11l-10.63-.08Z"/><path class="cls-3" d="m158.01,118.74v71.19c0,1.01,2.38,1.82,5.32,1.82s5.31-.82,5.31-1.82v-71.11l-10.63-.08Z"/><path class="cls-4" d="m125.38,71.6v26.24c0,.95,2.24,1.71,5,1.71s5-.77,5-1.71v-26.16"/><path class="cls-1" d="m250.35,83.86h0l-94.57-42.69c-.13-.06-.26-.12-.4-.18l-2.52-1.14-.09.02c-14.03-5.69-34.97-9.3-58.39-9.3-42.23,0-76.46,11.74-76.46,26.22,0,5.27,4.56,10.18,12.37,14.29l-.06.02.58.26c1.65.85,3.45,1.65,5.37,2.42l89.29,40.31c13.71,7.04,37.08,11.67,63.61,11.67,42.23,0,76.46-11.74,76.46-26.22,0-5.88-5.65-11.31-15.19-15.69Z"/><line class="cls-2" x1="17.92" y1="56.79" x2="17.92" y2="45.43"/><path class="cls-3" d="m250.35,72.5h0l-94.57-42.69c-.13-.06-.26-.12-.4-.18l-2.52-1.14-.09.02c-14.03-5.69-34.97-9.3-58.39-9.3-42.23,0-76.46,11.74-76.46,26.22,0,5.27,4.56,10.18,12.37,14.29l-.06.02.58.26c1.65.85,3.45,1.65,5.37,2.42l89.29,40.31c13.71,7.04,37.08,11.67,63.61,11.67,42.23,0,76.46-11.74,76.46-26.22,0-5.88-5.65-11.31-15.19-15.69Z"/><line class="cls-2" x1="265.54" y1="88.18" x2="265.54" y2="99.55"/></svg>