<?xml version="1.0" encoding="UTF-8"?>
<svg id="Ebene_1" xmlns="http://www.w3.org/2000/svg" version="1.1" viewBox="0 0 283.5 212.6">
  <!-- Generator: Adobe Illustrator 29.1.0, SVG Export Plug-In . SVG Version: 2.1.0 Build 142)  -->
  <defs>
    <style>
      .st0 {
        fill: #fff;
      }

      .st0, .st1 {
        stroke: #1d1d1b;
        stroke-linecap: round;
        stroke-linejoin: round;
        stroke-width: 2px;
      }

      .st1 {
        fill: #1d1d1b;
      }
    </style>
  </defs>
  <g>
    <path class="st1" d="M51.7,123v4.4c0,5.5,13,9.9,29,9.9s29-4.4,29-9.9v-4.4"/>
    <ellipse class="st0" cx="80.7" cy="123" rx="29" ry="9.9"/>
    <path class="st0" d="M73.6,66.1v53.7c0,1.4,3.2,2.4,7.1,2.4s7.1-1.1,7.1-2.4v-53.6s-14.3-.1-14.3-.1Z"/>
    <path class="st1" d="M4.3,32.2v11.6c0,14.5,34.2,26.2,76.5,26.2s76.5-11.7,76.5-26.2v-11.6"/>
    <ellipse class="st0" cx="80.7" cy="32.2" rx="76.5" ry="26.2"/>
  </g>
  <g>
    <path class="st1" d="M167.2,194.8v4.4c0,5.5,13,9.9,29,9.9s29-4.4,29-9.9v-4.4"/>
    <ellipse class="st0" cx="196.2" cy="194.8" rx="29" ry="9.9"/>
    <path class="st0" d="M189.1,137.9v53.7c0,1.4,3.2,2.4,7.1,2.4s7.1-1.1,7.1-2.4v-53.6h-14.3Z"/>
    <path class="st1" d="M119.8,103.9v11.6c0,14.5,34.2,26.2,76.5,26.2s76.5-11.7,76.5-26.2v-11.6"/>
    <ellipse class="st0" cx="196.2" cy="103.9" rx="76.5" ry="26.2"/>
  </g>
</svg>