<?xml version="1.0" encoding="UTF-8"?><svg id="Ebene_1" xmlns="http://www.w3.org/2000/svg" viewBox="0 0 283.46 212.6"><defs><style>.cls-1{fill:#1d1d1b;}.cls-1,.cls-2{stroke:#1d1d1b;stroke-linecap:round;stroke-linejoin:round;stroke-width:2px;}.cls-2{fill:#fff;}</style></defs><path class="cls-1" d="m65.4,136.31v4.38c0,5.49,12.98,9.94,28.98,9.94s28.98-4.45,28.98-9.94v-4.38"/><ellipse class="cls-2" cx="94.38" cy="136.31" rx="28.98" ry="9.94"/><path class="cls-2" d="m87.24,79.4v53.69c0,1.35,3.2,2.45,7.14,2.45s7.14-1.1,7.14-2.45v-53.58l-14.28-.11Z"/><path class="cls-1" d="m17.92,45.43v11.62c0,14.48,34.23,26.22,76.46,26.22s76.46-11.74,76.46-26.22v-11.62"/><ellipse class="cls-2" cx="94.38" cy="45.43" rx="76.46" ry="26.22"/><path class="cls-1" d="m160.1,179.07v4.38c0,5.49,12.98,9.94,28.98,9.94s28.98-4.45,28.98-9.94v-4.38"/><ellipse class="cls-2" cx="189.08" cy="179.07" rx="28.98" ry="9.94"/><path class="cls-2" d="m181.94,122.16v53.69c0,1.35,3.2,2.45,7.14,2.45s7.14-1.1,7.14-2.45v-53.58l-14.28-.11Z"/><path class="cls-1" d="m112.63,88.18v11.62c0,14.48,34.23,26.22,76.46,26.22s76.46-11.74,76.46-26.22v-11.62"/><ellipse class="cls-2" cx="189.08" cy="88.18" rx="76.46" ry="26.22"/></svg>